<svg width="523" height="203" viewBox="0 0 523 203" fill="none" xmlns="http://www.w3.org/2000/svg">
<path fill-rule="evenodd" clip-rule="evenodd" d="M95.8221 5.75735L92.9937 2.92892C94.8691 1.05356 97.4126 0 100.065 0H512.625C520.156 0 524.985 8.01089 521.467 14.6705L424.805 197.671C423.074 200.949 419.671 203 415.963 203H100.119C97.4135 203 94.8234 201.904 92.94 199.961L2.821 107.026C-0.981963 103.104 -0.933887 96.8565 2.92894 92.9937L92.9937 2.92893L95.8221 5.75735ZM5.75736 95.8221L95.8221 5.75735C96.9474 4.63214 98.4735 4 100.065 4H512.625C517.144 4 520.041 8.80653 517.93 12.8023L421.269 195.802C420.23 197.769 418.188 199 415.963 199H100.119C98.4957 199 96.9417 198.342 95.8116 197.177L5.6926 104.242C3.41083 101.889 3.43967 98.1398 5.75736 95.8221Z" fill="#8A2BE2"/>
</svg>
