<svg width="523" height="203" viewBox="0 0 523 203" fill="none" xmlns="http://www.w3.org/2000/svg">
<path fill-rule="evenodd" clip-rule="evenodd" d="M426.816 197.243L429.645 200.071C427.769 201.946 425.226 203 422.574 203L10.0137 203C2.48212 203 -2.34619 194.989 1.17145 188.329L97.833 5.32947C99.5645 2.05121 102.968 0 106.675 0L422.519 0C425.225 0 427.815 1.09624 429.698 3.03854L519.817 95.9738C523.62 99.8956 523.572 106.143 519.709 110.006L429.645 200.071L426.816 197.243ZM516.881 107.178L426.816 197.243C425.691 198.368 424.165 199 422.574 199L10.0137 199C5.49475 199 2.59778 194.193 4.70837 190.198L101.37 7.19768C102.409 5.23073 104.451 4 106.675 4L422.519 4C424.143 4 425.697 4.65775 426.827 5.82312L516.946 98.7584C519.228 101.111 519.199 104.86 516.881 107.178Z" fill="#8A2BE2"/>
</svg>
