<svg width="1389" height="1024" viewBox="0 0 1389 1024" fill="none" xmlns="http://www.w3.org/2000/svg">
<path d="M643.16 405.613L643.945 404.296C646.421 399.434 646.908 397.122 646.036 390.857H654.923C662.556 388.647 666.421 387.908 672.174 387.959M643.16 405.613L642.115 407.194C637.032 414.361 635.9 418.212 638.978 424.585M643.16 405.613C643.09 405.525 643.019 405.437 642.949 405.35M638.978 424.585L633.75 431.7M638.978 424.585C646.285 413.744 650.709 410.8 659.105 410.356M634.012 431.7L628 433.544C634.205 437.29 636.798 440.084 638.978 446.983L640.024 449.618M640.024 449.618C642.498 454.63 647.551 457.453 652.309 459.104M640.024 449.618C637.909 450.772 637.427 452.254 637.671 456.205C639.2 461.939 641.853 467.799 642.115 469.907C642.932 471.965 642.988 473.119 642.115 475.177C643.763 475.236 644.476 475.072 646.558 475.704C652.693 478.922 656.046 481.421 660.935 486.244C665.709 491.063 668.949 493.169 675.834 495.73C680.197 495.726 681.952 495.326 682.891 493.359M652.309 459.104L670.606 455.678L681.846 454.097M652.309 459.104L647.604 460.421C650.244 462.652 651.941 463.891 657.798 465.955M681.846 454.097C680.277 446.997 673.11 445.913 660.673 443.821M681.846 454.097C686.291 453.523 688.686 453.365 692.824 453.307M660.673 443.821C655.188 443.151 652.508 441.924 648.65 437.76M660.673 443.821C657.948 439.004 658.978 430.917 660.935 419.315M660.935 419.315C658.72 416.419 658.693 414.385 659.105 410.356M660.935 419.315C664.501 428.383 675.572 430.699 679.493 435.179C683.414 439.658 686.967 448.952 692.824 453.307M659.105 410.356C665.276 402.53 668.443 400.419 673.481 401.397M692.824 453.307C693.755 447.387 693.809 444.117 693.869 438.287M692.824 453.307C703.866 453.527 707.97 455.126 717.394 458.313M692.824 453.307C708.466 444.145 719.484 438.262 723.295 428.011M693.869 438.287C686.998 430.335 683.277 428.425 676.618 424.585M693.869 438.287C698.151 433.202 700.944 431.032 706.416 428.011M676.618 424.585C669.206 417.008 668.653 411.903 673.481 401.397M676.618 424.585L677.925 416.68M673.481 401.397C676.413 397.953 677.958 396.508 680.539 394.81M706.416 428.011L712.689 423.531M706.416 428.011C704.047 425.586 704.008 423.339 705.109 418.525M677.925 416.68C680.747 420.925 682.804 422.268 687.335 422.741M677.925 416.68C677.699 408.821 680.931 406.423 692.04 405.35C698.883 404.903 707.723 406.667 707.723 406.667C707.913 413.63 708.831 417.359 712.689 423.531M687.335 422.741L696.222 421.687M687.335 422.741C687.618 419.7 687.647 418.109 687.596 415.363M712.689 423.531C717.118 418.714 717.517 414.205 714.257 402.715M705.109 418.525L696.222 421.687M705.109 418.525C701.271 413.762 698.338 412.148 692.301 410.356C687.224 410.804 686.115 411.864 687.596 415.363M696.222 421.687L696.745 416.153C693.083 416.689 691.075 416.517 687.596 415.363M672.174 387.959C673.614 385.99 674.377 385.132 675.572 384.533C678.711 383.098 679.493 382.689 681.584 379C685.244 382.162 692.365 380.654 694.653 380.054C696.942 379.454 699.466 381.391 700.404 381.898M672.174 387.959C676.765 389.598 678.632 391.072 680.539 394.81M700.404 381.898C695.23 383.649 693.593 385.42 692.824 390.857M700.404 381.898C712.668 385.336 726.654 381.71 727.327 381.371C728 381.033 728.111 390.818 735.952 395.864C743.794 400.91 743.01 407.194 740.919 412.201M680.539 394.81C685.102 392.519 687.789 391.644 692.824 390.857M658.059 394.019C660.509 395.162 664.071 393.229 667.731 392.702C671.39 392.175 671.913 393.492 671.913 393.492M717.394 458.313L724.451 461.212M717.394 458.313C724.31 444.781 729.464 436.724 723.295 428.011M724.713 417.471C724.023 413.54 723.69 411.675 721.576 408.775M724.713 417.471C727.603 418.482 728.639 419.576 729.287 422.609C729.024 427.392 734.733 427.022 734.384 427.747C730.907 433.814 733.059 437.593 733.861 442.767C734.812 447.03 733.47 451.127 733.339 453.307M724.713 417.471C724.927 421.508 724.432 424.954 723.295 428.011M721.576 408.775C730.685 406.097 734.512 407.076 740.919 412.201M721.576 408.775L714.257 402.715M733.339 453.307C729.962 458.04 728 459.494 724.451 461.212M733.339 453.307C735.63 455.838 737.125 457.196 740.657 459.367M724.451 461.212C728.467 463.574 734.123 467.799 734.123 468.326C734.123 468.853 728.092 470.059 722.883 469.38C706.859 465.132 699.325 463.066 693.085 465.745C691.1 466.887 690.408 467.712 689.687 469.38C688.969 467.135 688.119 465.955 686.028 465.218C683.937 464.481 672.97 466.628 657.798 465.955M679.754 480.711C665.095 476.826 660.783 473.577 657.798 465.955M679.754 480.711C676.558 486.686 679.754 492.305 682.891 493.359M679.754 480.711C702.871 481.016 712.387 478.707 722.883 469.961M692.824 390.857C703.153 390.59 707.868 393.124 714.257 402.715M740.919 412.201C740.919 412.201 744.055 415.89 749.283 425.112C754.511 434.335 760 436.443 760 436.443C758.389 439.216 755.963 442.048 752.158 449.354C748.336 458.885 745.544 460.629 740.657 459.367M701.711 398.235C695.316 394.483 691.404 394.875 683.937 399.289M723.145 392.175C724.13 392.839 725.758 394.283 727.065 396.127C728.372 397.972 729.679 398.762 730.986 399.553M740.657 459.367C745.177 474.53 732.164 484.038 721.838 488.352C711.511 492.667 710 497.12 710.075 501C705.745 498.158 699.881 497.575 696.222 497.048C692.562 496.521 686.028 494.413 682.891 493.359M740.919 444.084C738.475 447.184 738.813 448.983 741.18 452.253M681.584 476.495C675.651 476.328 672.452 475.202 666.947 471.488M727.065 476.758C723.081 480.025 718.178 482.555 715.303 483.609C712.428 484.663 710.075 485.19 708.507 487.562M745.101 426.43C743.58 421.945 742.173 419.609 737.782 416.153" stroke="#00FFFF" stroke-width="4" stroke-linecap="round" stroke-linejoin="round"/>
<path d="M891.5 406H905L923 424H1318.5" stroke="#FF4500" stroke-width="3"/>
<path d="M873 424.5H885.5L903 442H1373" stroke="#FF4500" stroke-width="3"/>
<path d="M891.5 461H919.5" stroke="#FF4500" stroke-width="3"/>
<path d="M891 497H905.5L940.5 462H1245" stroke="#FF4500" stroke-width="3"/>
<path d="M945.5 493L959 479.5H1336.5" stroke="#FF4500" stroke-width="3"/>
<path d="M910 514.5H959.5L976.5 497.5H1265" stroke="#FF4500" stroke-width="3"/>
<path d="M1001 515H1101" stroke="#FF4500" stroke-width="3"/>
<path d="M984 534H1123L1143 514L1299.5 514" stroke="#FF4500" stroke-width="3"/>
<path d="M855.5 533.5H921L940 552.5H1136" stroke="#FF4500" stroke-width="3"/>
<path d="M816.5 554L832 569.5V605.5L818 619.5" stroke="#FF4500" stroke-width="3"/>
<path d="M899.5 551.5H867.5L850.5 568.5V623.5L833.5 640.5V674" stroke="#FF4500" stroke-width="3"/>
<path d="M881.5 574L868.5 587V660L886 677.5V765" stroke="#FF4500" stroke-width="3"/>
<path d="M887 637.5V607.5L924 570.5H1009.5" stroke="#FF4500" stroke-width="3"/>
<path d="M1038 588.5H1086.5L1103 605H1159.5L1208.5 654" stroke="#FF4500" stroke-width="3"/>
<path d="M937.5 730.5L906 699V624L940.5 589.5H995.5L1012.5 606.5H1068.5L1104.5 642.5H1155" stroke="#FF4500" stroke-width="3"/>
<path d="M945.5 621L958.5 608H976.5L992 623.5H1049.5L1103.5 677.5H1123.5L1191.5 745.5" stroke="#FF4500" stroke-width="3"/>
<path d="M927.5 683L959 714.5V769.5L1064.5 875" stroke="#FF4500" stroke-width="3"/>
<path d="M928 646.5L975 693.5V715L1011 751V782.5" stroke="#FF4500" stroke-width="3"/>
<path d="M1101 802L1014.5 715.5C1015 710.167 1015.7 699.2 1014.5 698C1013.3 696.8 990 673.5 978.5 662V647.5" stroke="#FF4500" stroke-width="3"/>
<path d="M869 720V784.5L924 839.5V863L976.5 915.5V944.5" stroke="#FF4500" stroke-width="3"/>
<path d="M850 664V696L832.5 713.5V880.5L850 898V965" stroke="#FF4500" stroke-width="3"/>
<path d="M780 573.5L795 588.5V640.5L812 657.5V915.5L795 932.5V1038" stroke="#FF4500" stroke-width="3"/>
<path d="M792.5 665L779 678.5V693.5L797.5 712V892" stroke="#FF4500" stroke-width="3"/>
<path d="M774 609.5L761.5 622V675L740.5 696V860L759.5 879V1000" stroke="#FF4500" stroke-width="3"/>
<path d="M777 946.5V734.5L762 719.5" stroke="#FF4500" stroke-width="3"/>
<path d="M759.5 756V837.5" stroke="#FF4500" stroke-width="3"/>
<path d="M740.5 592.5V659L722.5 677V879.5L740.5 897.5V1038.5" stroke="#FF4500" stroke-width="3"/>
<path d="M722.5 593.5V641.5L704.5 659.5V988.5L686.5 1006.5V1042.5" stroke="#FF4500" stroke-width="3"/>
<path d="M704.5 574.5V620" stroke="#FF4500" stroke-width="3"/>
<path d="M686.5 610.5V860.5L651 896V1021.5" stroke="#FF4500" stroke-width="3"/>
<path d="M667.5 630V843.5L655 856" stroke="#FF4500" stroke-width="3"/>
<path d="M650 739V819.5" stroke="#FF4500" stroke-width="3"/>
<path d="M667.5 573.5V588L650.5 605V697L632.5 715V1037.5" stroke="#FF4500" stroke-width="3"/>
<path d="M613.5 591.5V622L633.5 642V679.5" stroke="#FF4500" stroke-width="3"/>
<path d="M580 591.5L593.5 605V644.5L611.5 662.5V1042" stroke="#FF4500" stroke-width="3"/>
<path d="M594.5 685V837" stroke="#FF4500" stroke-width="3"/>
<path d="M558.5 693V643.5L540 625V570.5L485 515.5H467.5L450.5 532.5H341.5L323.5 550.5" stroke="#FF4500" stroke-width="3"/>
<path d="M364.5 551.5H429.5L463.5 585.5" stroke="#FF4500" stroke-width="3"/>
<path d="M472 551.5H484L501.5 569V584" stroke="#FF4500" stroke-width="3"/>
<path d="M523 611V643.5L540.5 661V716L524.5 732V909" stroke="#FF4500" stroke-width="3"/>
<path d="M595.5 984V881L576 861.5V624.5L558 606.5V549L505 496H448.5L431 513.5H303L267.5 478H17" stroke="#FF4500" stroke-width="3"/>
<path d="M520 677L504.5 661.5V624.5L484.5 604.5V575.5" stroke="#FF4500" stroke-width="3"/>
<path d="M435 858.5L486 807.5V754L504 736V697.5L486 679.5V644.5L412.5 571H282.5L271.5 582" stroke="#FF4500" stroke-width="3"/>
<path d="M409 602L395 588H337.5L288 637.5H263.5L177.5 723.5" stroke="#FF4500" stroke-width="3"/>
<path d="M326.5 710.5L355.5 681.5V662.5L391.5 626.5H430.5L465 661V697.5L484 716.5" stroke="#FF4500" stroke-width="3"/>
<path d="M417.5 646.5L448.5 677.5V735L435 748.5H412.5L372.5 788.5V806.5L323.5 855.5" stroke="#FF4500" stroke-width="3"/>
<path d="M381.5 875L429 827.5V808L464 773V736.5" stroke="#FF4500" stroke-width="3"/>
<path d="M686 902.5V945.5" stroke="#FF4500" stroke-width="3"/>
<path d="M667.5 921V1038.5" stroke="#FF4500" stroke-width="3"/>
<path d="M482 478H431L413.5 495.5H323.5L307.5 479.5" stroke="#FF4500" stroke-width="3"/>
<path d="M389 479.5H343L325 461.5H252.5" stroke="#FF4500" stroke-width="3"/>
<path d="M520.5 461H501.5L480.5 440H384" stroke="#FF4500" stroke-width="3"/>
<path d="M461.5 460.5H357.5L341.5 444.5H229L213 460.5H56" stroke="#FF4500" stroke-width="3"/>
<path d="M210 439L194.5 423.5H89" stroke="#FF4500" stroke-width="3"/>
<path d="M0 407H246L267 428H457" stroke="#FF4500" stroke-width="3"/>
<path d="M500.5 421L485 405.5H295" stroke="#FF4500" stroke-width="3"/>
<path d="M523 401.5V389L503 369H465L446.5 387.5H218.5" stroke="#FF4500" stroke-width="3"/>
<path d="M36 387.5H174L191 370.5H318L341 347.5H449.5L502 295V244.5L520.5 226V150.5L545 126V14" stroke="#FF4500" stroke-width="3"/>
<path d="M557 127.5V24.5L579.5 2" stroke="#FF4500" stroke-width="3"/>
<path d="M363.5 370H424.5" stroke="#FF4500" stroke-width="3"/>
<path d="M499.5 338L488.5 349" stroke="#FF4500" stroke-width="3"/>
<path d="M197 262.5L247 312.5H281L306 337.5H431L485.5 283V225L506 204.5V167L489 150V96.5L447 54.5V13.5" stroke="#FF4500" stroke-width="3"/>
<path d="M141.5 191L172.5 222H195.5L246.5 273" stroke="#FF4500" stroke-width="3"/>
<path d="M233.5 226L267.5 260V279L282.5 294H319.5L342.5 317H410.5L448.5 279V226L429.5 207V150.5L401 122" stroke="#FF4500" stroke-width="3"/>
<path d="M365 296H396L429 263V238.5L394.5 204V182.5L290 78" stroke="#FF4500" stroke-width="3"/>
<path d="M449 136.5V185.5L471 207.5V255" stroke="#FF4500" stroke-width="3"/>
<path d="M417.5 63L464.5 110V163.5L486.5 185.5" stroke="#FF4500" stroke-width="3"/>
<path d="M282.5 548L267 532.5H230L196 566.5" stroke="#FF4500" stroke-width="3"/>
<path d="M541 384V369L524 352V261.5L542.5 243V216.5L552 207" stroke="#FF4500" stroke-width="3"/>
<path d="M540 327.5V283.5L577 246.5V208L540 171" stroke="#FF4500" stroke-width="3"/>
<path d="M562.5 164.5L576 151V25.5H612.5V223H664" stroke="#FF4500" stroke-width="3"/>
<path d="M557.5 345V295.5L593 260V45.5" stroke="#FF4500" stroke-width="3"/>
<path d="M619.5 255L631 243.5H648.5L700 295V330" stroke="#FF4500" stroke-width="3"/>
<path d="M648 261L635 274V311.5H666L682 295.5" stroke="#FF4500" stroke-width="3"/>
<path d="M653 292C654.6 290.4 661.667 284 665 281" stroke="#FF4500" stroke-width="3"/>
<path d="M613.5 282V310.5" stroke="#FF4500" stroke-width="3"/>
<path d="M580.5 299.5L594.5 313.5V330.5" stroke="#FF4500" stroke-width="3"/>
<path d="M718.5 273L687.5 242V10.5" stroke="#FF4500" stroke-width="3"/>
<path d="M634.5 206H649L668.5 186.5V63L647.5 42V17.5" stroke="#FF4500" stroke-width="3"/>
<path d="M646 81L631.5 95.5V162.5L651 182" stroke="#FF4500" stroke-width="3"/>
<path d="M649.5 99.5V163" stroke="#FF4500" stroke-width="3"/>
<path d="M631.5 54V0.5" stroke="#FF4500" stroke-width="3"/>
<path d="M741 308V261L704.5 224.5V11" stroke="#FF4500" stroke-width="3"/>
<path d="M722.5 182.5V58L739 41.5V14" stroke="#FF4500" stroke-width="3"/>
<path d="M741 108.5V84.5" stroke="#FF4500" stroke-width="3"/>
<path d="M727 218L739 206V152L778.5 112.5V17" stroke="#FF4500" stroke-width="3"/>
<path d="M759.5 90.5V4" stroke="#FF4500" stroke-width="3"/>
<path d="M796 126.5V0" stroke="#FF4500" stroke-width="3"/>
<path d="M762 165.5L777.5 150L798 170.5V205.5L774 229.5V254.5" stroke="#FF4500" stroke-width="3"/>
<path d="M772 192L760 204V277.5L778.5 296V332L796.5 350H811L831 370H909L949 410H1234L1256 388H1389" stroke="#FF4500" stroke-width="3"/>
<path d="M1119 370H1103L1087.5 385.5H964.5" stroke="#FF4500" stroke-width="3"/>
<path d="M937 365L924 352H858.5" stroke="#FF4500" stroke-width="3"/>
<path d="M795.5 309.5V239L811 223.5V97.5L838.5 70V10" stroke="#FF4500" stroke-width="3"/>
<path d="M832.5 119V223.5L851.5 242.5V267" stroke="#FF4500" stroke-width="3"/>
<path d="M814 264V312L828 326H881" stroke="#FF4500" stroke-width="3"/>
<path d="M836 282V295.5L852 311.5H913" stroke="#FF4500" stroke-width="3"/>
<path d="M945.5 336.5L976 367H1030.5" stroke="#FF4500" stroke-width="3"/>
<path d="M1064.5 367L1051 353.5H999L978 332.5" stroke="#FF4500" stroke-width="3"/>
<path d="M1038.5 332.5H1068L1101.5 299V275.5L1189.5 187.5" stroke="#FF4500" stroke-width="3"/>
<path d="M1009 315H960.5L942 296.5H886L867.5 278V244" stroke="#FF4500" stroke-width="3"/>
<path d="M886 245V257.5L904.5 276H919.5" stroke="#FF4500" stroke-width="3"/>
<path d="M905.5 260L923.5 242H941.5L1011.5 172" stroke="#FF4500" stroke-width="3"/>
<path d="M867.5 223.5L848.5 204.5V151.5" stroke="#FF4500" stroke-width="3"/>
<path d="M849 128.5V58.5L869 38.5V19" stroke="#FF4500" stroke-width="3"/>
<path d="M901 220.5L869 188.5V82.5" stroke="#FF4500" stroke-width="3"/>
<path d="M887.5 71.5V12" stroke="#FF4500" stroke-width="3"/>
<path d="M955 46L890 111V167L922 199H941" stroke="#FF4500" stroke-width="3"/>
<path d="M918.5 164.5L905.5 151.5V131.5L1025 12" stroke="#FF4500" stroke-width="3"/>
<path d="M1011 136.5L962.5 185H942" stroke="#FF4500" stroke-width="3"/>
<path d="M944 261.5L979 296.5H995.5L1014.5 277.5H1040L1186 131.5" stroke="#FF4500" stroke-width="3"/>
<path d="M1028.5 229.5L994 264H976.5" stroke="#FF4500" stroke-width="3"/>
<path d="M1121 118L1055 184H1031.5L982.5 233" stroke="#FF4500" stroke-width="3"/>
</svg>
