<svg width="278" height="204" viewBox="0 0 278 204" fill="none" xmlns="http://www.w3.org/2000/svg">
<path d="M185.964 104.6C185.964 130.488 164.978 151.474 139.09 151.474C113.203 151.474 92.2172 130.488 92.2172 104.6C92.2172 78.713 113.203 57.7272 139.09 57.7272C164.978 57.7272 185.964 78.713 185.964 104.6Z" stroke="black" stroke-width="2.18675"/>
<path d="M111.72 86.1352L112.137 85.4419C113.452 82.8831 113.711 81.6667 113.247 78.37H117.967C122.022 77.2066 124.074 76.8178 127.13 76.8447M111.72 86.1352L111.165 86.9672C108.466 90.7385 107.864 92.765 109.499 96.119M111.72 86.1352C111.683 86.0888 111.646 86.0426 111.608 85.9966M109.499 96.119L106.723 99.863M109.499 96.119C113.38 90.414 115.729 88.8648 120.189 88.6312M106.862 99.863L103.669 100.834C106.964 102.805 108.341 104.275 109.499 107.905L110.055 109.292M110.055 109.292C111.369 111.93 114.052 113.415 116.579 114.284M110.055 109.292C108.932 109.9 108.676 110.679 108.805 112.759C109.617 115.776 111.026 118.86 111.165 119.969C111.599 121.052 111.629 121.659 111.165 122.743C112.04 122.773 112.419 122.687 113.525 123.02C116.783 124.713 118.564 126.029 121.16 128.566C123.696 131.103 125.417 132.211 129.073 133.558C131.391 133.556 132.323 133.346 132.821 132.31M116.579 114.284L126.297 112.481L132.266 111.649M116.579 114.284L114.08 114.977C115.483 116.151 116.384 116.803 119.494 117.889M132.266 111.649C131.433 107.913 127.626 107.343 121.022 106.242M132.266 111.649C134.627 111.347 135.899 111.264 138.097 111.233M121.022 106.242C118.108 105.889 116.685 105.243 114.636 103.052M121.022 106.242C119.574 103.707 120.121 99.4511 121.16 93.3458M121.16 93.3458C119.984 91.8216 119.97 90.751 120.189 88.6312M121.16 93.3458C123.054 98.1174 128.934 99.3364 131.017 101.694C133.099 104.051 134.986 108.942 138.097 111.233M120.189 88.6312C123.466 84.5127 125.148 83.4017 127.824 83.9166M138.097 111.233C138.591 108.118 138.62 106.397 138.652 103.33M138.097 111.233C143.961 111.349 146.141 112.191 151.146 113.868M138.097 111.233C146.404 106.412 152.256 103.316 154.28 97.9217M138.652 103.33C135.003 99.1446 133.026 98.1395 129.49 96.119M138.652 103.33C140.926 100.654 142.409 99.5115 145.315 97.9217M129.49 96.119C125.553 92.1313 125.26 89.4452 127.824 83.9166M129.49 96.119L130.184 91.9591M127.824 83.9166C129.381 82.1038 130.202 81.3437 131.572 80.45M145.315 97.9217L148.647 95.5644M145.315 97.9217C144.057 96.6455 144.036 95.463 144.621 92.9298M130.184 91.9591C131.682 94.193 132.775 94.8995 135.181 95.1484M130.184 91.9591C130.064 87.823 131.78 86.5611 137.68 85.9966C141.315 85.7615 146.009 86.6899 146.009 86.6899C146.111 90.3539 146.598 92.3162 148.647 95.5644M135.181 95.1484L139.901 94.5937M135.181 95.1484C135.332 93.548 135.347 92.7108 135.32 91.2658M148.647 95.5644C150.999 93.0291 151.211 90.6565 149.48 84.6099M144.621 92.9298L139.901 94.5937M144.621 92.9298C142.583 90.4233 141.025 89.5738 137.819 88.6312C135.123 88.8667 134.534 89.4247 135.32 91.2658M139.901 94.5937L140.179 91.6818C138.234 91.9638 137.168 91.8729 135.32 91.2658M127.13 76.8447C127.894 75.8085 128.3 75.357 128.934 75.0421C130.601 74.2867 131.017 74.0714 132.127 72.1301C134.071 73.7941 137.853 73.0003 139.068 72.6848C140.284 72.3692 141.624 73.3883 142.122 73.6554M127.13 76.8447C129.568 77.7075 130.559 78.4831 131.572 80.45M142.122 73.6554C139.374 74.5764 138.505 75.5083 138.097 78.37M142.122 73.6554C148.636 75.4645 156.064 73.5561 156.421 73.3781C156.778 73.2001 156.838 78.3491 161.002 81.0046C165.167 83.6601 164.75 86.9672 163.64 89.6018M131.572 80.45C133.996 79.2444 135.423 78.7838 138.097 78.37M119.633 80.034C120.934 80.6355 122.826 79.618 124.77 79.3407C126.713 79.0633 126.991 79.7567 126.991 79.7567M151.146 113.868L154.894 115.393M151.146 113.868C154.819 106.747 157.556 102.507 154.28 97.9217M155.033 92.3751C154.666 90.3067 154.49 89.3251 153.367 87.7992M155.033 92.3751C156.568 92.9071 157.118 93.4827 157.462 95.0791C157.322 97.596 160.354 97.4014 160.169 97.783C158.322 100.976 159.466 102.964 159.892 105.687C160.396 107.93 159.684 110.086 159.614 111.233M155.033 92.3751C155.147 94.4996 154.883 96.3129 154.28 97.9217M153.367 87.7992C158.205 86.3898 160.237 86.9049 163.64 89.6018M153.367 87.7992L149.48 84.6099M159.614 111.233C157.821 113.724 156.779 114.489 154.894 115.393M159.614 111.233C160.831 112.566 161.625 113.28 163.501 114.423M154.894 115.393C157.027 116.636 160.03 118.86 160.03 119.137C160.03 119.415 156.827 120.049 154.061 119.692C145.551 117.456 141.55 116.369 138.235 117.779C137.181 118.38 136.813 118.814 136.431 119.692C136.049 118.51 135.598 117.889 134.487 117.501C133.377 117.114 127.552 118.243 119.494 117.889M131.156 125.655C123.37 123.61 121.08 121.901 119.494 117.889M131.156 125.655C129.458 128.799 131.156 131.756 132.821 132.31M131.156 125.655C143.433 125.815 148.487 124.6 154.061 119.997M138.097 78.37C143.583 78.2295 146.086 79.5625 149.48 84.6099M163.64 89.6018C163.64 89.6018 165.306 91.5431 168.082 96.3964C170.859 101.25 173.774 102.359 173.774 102.359C172.918 103.819 171.63 105.308 169.609 109.153C167.579 114.169 166.096 115.087 163.501 114.423M142.817 82.2526C139.42 80.2778 137.343 80.484 133.377 82.8073M154.2 79.0633C154.723 79.4127 155.588 80.1727 156.282 81.1433C156.976 82.114 157.671 82.5299 158.365 82.9459M163.501 114.423C165.901 122.402 158.99 127.405 153.506 129.676C148.021 131.946 147.219 134.29 147.259 136.332C144.959 134.836 141.845 134.529 139.901 134.252C137.958 133.974 134.487 132.865 132.821 132.31M163.64 106.38C162.342 108.011 162.522 108.958 163.779 110.679M132.127 123.436C128.976 123.348 127.277 122.756 124.353 120.801M156.282 123.575C154.166 125.294 151.562 126.625 150.035 127.18C148.508 127.734 147.259 128.012 146.426 129.26M165.861 97.0897C165.053 94.7297 164.306 93.5004 161.974 91.6818" stroke="#8A2BE2" stroke-width="2.18675" stroke-linecap="round" stroke-linejoin="round"/>
<mask id="path-3-outside-1_93_261" maskUnits="userSpaceOnUse" x="132" y="22" width="144" height="159" fill="black">
<rect fill="white" x="132" y="22" width="144" height="159"/>
<path d="M194.993 25.5039L265.578 88.5983C267.498 90.327 268.987 92.3917 270.043 94.7925C271.196 97.1934 271.772 99.7383 271.772 102.427C271.772 105.212 271.196 107.853 270.043 110.35C268.891 112.751 267.306 114.816 265.29 116.544L195.569 177.622H141.694L227.548 102.427L141.694 25.5039H194.993Z"/>
</mask>
<path d="M194.993 25.5039L197.179 23.0584L196.245 22.2238H194.993V25.5039ZM265.578 88.5983L267.772 86.1602L267.764 86.1528L265.578 88.5983ZM270.043 94.7925L267.041 96.1136L267.063 96.1631L267.086 96.2119L270.043 94.7925ZM270.043 110.35L273 111.769L273.011 111.747L273.021 111.725L270.043 110.35ZM265.29 116.544L263.155 114.054L263.141 114.065L263.128 114.077L265.29 116.544ZM195.569 177.622V180.902H196.802L197.73 180.089L195.569 177.622ZM141.694 177.622L139.533 175.154L132.97 180.902H141.694V177.622ZM227.548 102.427L229.709 104.895L232.495 102.455L229.737 99.9843L227.548 102.427ZM141.694 25.5039V22.2238H133.117L139.505 27.9469L141.694 25.5039ZM192.807 27.9495L263.392 91.0439L267.764 86.1528L197.179 23.0584L192.807 27.9495ZM263.383 91.0364C264.953 92.4494 266.169 94.1315 267.041 96.1136L273.046 93.4715C271.805 90.6519 270.043 88.2046 267.772 86.1602L263.383 91.0364ZM267.086 96.2119C268.024 98.1654 268.492 100.225 268.492 102.427H275.052C275.052 99.2519 274.368 96.2214 273 93.3731L267.086 96.2119ZM268.492 102.427C268.492 104.744 268.016 106.915 267.065 108.975L273.021 111.725C274.375 108.791 275.052 105.681 275.052 102.427H268.492ZM267.086 108.931C266.13 110.922 264.825 112.622 263.155 114.054L267.424 119.035C269.787 117.009 271.652 114.579 273 111.769L267.086 108.931ZM263.128 114.077L193.407 175.155L197.73 180.089L267.451 119.012L263.128 114.077ZM195.569 174.342H141.694V180.902H195.569V174.342ZM143.855 180.089L229.709 104.895L225.387 99.9597L139.533 175.154L143.855 180.089ZM229.737 99.9843L143.883 23.061L139.505 27.9469L225.359 104.87L229.737 99.9843ZM141.694 28.7841H194.993V22.2238H141.694V28.7841Z" fill="#FF4500" mask="url(#path-3-outside-1_93_261)"/>
<mask id="path-5-outside-2_93_261" maskUnits="userSpaceOnUse" x="2" y="22" width="144" height="159" fill="black">
<rect fill="white" x="2" y="22" width="144" height="159"/>
<path d="M136.306 25.5039L50.4518 102.427L136.306 177.622H82.2871L12.7104 116.544C8.38889 112.991 6.22813 108.285 6.22813 102.427C6.22813 99.7383 6.75631 97.1934 7.81269 94.7925C8.9651 92.3917 10.5016 90.327 12.4223 88.5983L82.8633 25.5039H136.306Z"/>
</mask>
<path d="M136.306 25.5039L138.495 27.9469L144.883 22.2238H136.306V25.5039ZM50.4518 102.427L48.263 99.9843L45.5052 102.455L48.2907 104.895L50.4518 102.427ZM136.306 177.622V180.902H145.03L138.467 175.154L136.306 177.622ZM82.2871 177.622L80.1232 180.087L81.0516 180.902H82.2871V177.622ZM12.7104 116.544L14.8744 114.079L14.8346 114.044L14.7937 114.011L12.7104 116.544ZM7.81269 94.7925L4.85558 93.3731L4.83214 93.4219L4.81034 93.4715L7.81269 94.7925ZM12.4223 88.5983L10.2338 86.155L10.228 86.1602L12.4223 88.5983ZM82.8633 25.5039V22.2238H81.6091L80.6748 23.0606L82.8633 25.5039ZM134.117 23.061L48.263 99.9843L52.6407 104.87L138.495 27.9469L134.117 23.061ZM48.2907 104.895L134.145 180.089L138.467 175.154L52.613 99.9597L48.2907 104.895ZM136.306 174.342H82.2871V180.902H136.306V174.342ZM84.4511 175.157L14.8744 114.079L10.5465 119.009L80.1232 180.087L84.4511 175.157ZM14.7937 114.011C11.27 111.113 9.50825 107.357 9.50825 102.427H2.948C2.948 109.213 5.50777 114.869 10.6272 119.078L14.7937 114.011ZM9.50825 102.427C9.50825 100.181 9.94652 98.0875 10.815 96.1136L4.81034 93.4715C3.56611 96.2993 2.948 99.2952 2.948 102.427H9.50825ZM10.7698 96.2119C11.7427 94.1851 13.0241 92.4697 14.6166 91.0364L10.228 86.1602C7.97921 88.1842 6.18752 90.5982 4.85558 93.3731L10.7698 96.2119ZM14.6108 91.0416L85.0518 27.9473L80.6748 23.0606L10.2338 86.155L14.6108 91.0416ZM82.8633 28.7841H136.306V22.2238H82.8633V28.7841Z" fill="#FF4500" mask="url(#path-5-outside-2_93_261)"/>
</svg>
