<svg width="819" height="750" viewBox="0 0 819 750" fill="none" xmlns="http://www.w3.org/2000/svg">
<path d="M94.8337 164.171L99.6871 156.093C115.015 126.281 118.028 112.109 112.63 73.6998H167.636C214.882 60.1447 238.8 55.6152 274.412 55.9287M94.8337 164.171L88.3624 173.864C56.9026 217.803 49.8957 241.413 68.9485 280.49M94.8337 164.171C94.397 163.63 93.961 163.091 93.5258 162.555M68.9485 280.49L36.5921 324.11M68.9485 280.49C114.17 214.022 141.553 195.972 193.521 193.251M38.2099 324.11L1 335.419C39.4064 358.387 55.4521 375.518 68.9485 417.812L75.4198 433.968M75.4198 433.968C90.7344 464.697 122.007 482.007 151.457 492.127M75.4198 433.968C62.3326 441.046 59.3497 450.13 60.8594 474.356C70.3222 509.508 86.7446 545.441 88.3624 558.365C93.4217 570.982 93.7658 578.057 88.3624 590.676C98.5612 591.034 102.976 590.029 115.865 593.907C153.832 613.634 174.588 628.96 204.846 658.529C234.398 688.076 254.452 700.99 297.061 716.689C324.068 716.661 334.93 714.215 340.743 702.149M151.457 492.127L264.705 471.125L334.271 461.432M151.457 492.127L122.337 500.205C138.68 513.881 149.18 521.478 185.432 534.132M334.271 461.432C324.562 417.897 280.201 411.254 203.228 398.425M334.271 461.432C361.786 457.91 376.612 456.94 402.22 456.585M203.228 398.425C169.276 394.32 152.689 386.798 128.808 361.268M203.228 398.425C186.361 368.896 192.734 319.311 204.846 248.179M204.846 248.179C191.137 230.421 190.972 217.949 193.521 193.251M204.846 248.179C226.919 303.773 295.444 317.976 319.711 345.44C343.978 372.904 365.972 429.884 402.22 456.585M193.521 193.251C231.714 145.267 251.315 132.323 282.501 138.322M402.22 456.585C407.981 420.293 408.319 400.241 408.691 364.499M402.22 456.585C470.563 457.936 495.967 467.741 554.295 487.281M402.22 456.585C499.035 400.411 567.232 364.344 590.818 301.492M408.691 364.499C366.164 315.74 343.132 304.03 301.915 280.49M408.691 364.499C435.192 333.322 452.479 320.015 486.347 301.492M301.915 280.49C256.038 234.03 252.619 202.735 282.501 138.322M301.915 280.49L310.004 232.024M282.501 138.322C300.645 117.201 310.212 108.345 326.182 97.933M486.347 301.492L525.174 274.028M486.347 301.492C471.686 286.624 471.443 272.847 478.257 243.333M310.004 232.024C327.469 258.051 340.202 266.282 368.246 269.181M310.004 232.024C308.604 183.835 328.61 169.133 397.366 162.555C439.724 159.816 494.436 170.633 494.436 170.633C495.615 213.321 501.296 236.184 525.174 274.028M368.246 269.181L423.251 262.719M368.246 269.181C369.998 250.535 370.18 240.781 369.863 223.946M525.174 274.028C552.587 244.49 555.056 216.848 534.881 146.4M478.257 243.333L423.251 262.719M478.257 243.333C454.505 214.13 436.353 204.233 398.984 193.251C367.561 195.995 360.699 202.496 369.863 223.946M423.251 262.719L426.487 228.793C403.825 232.079 391.397 231.019 369.863 223.946M274.412 55.9287C283.325 43.856 288.049 38.5962 295.444 34.9266C314.869 26.1259 319.711 23.6177 332.653 1C355.303 20.3866 399.381 11.1385 413.545 7.4622C427.708 3.78587 443.329 15.6586 449.137 18.7711M274.412 55.9287C302.826 65.9807 314.379 75.017 326.182 97.933M449.137 18.7711C417.112 29.5011 406.98 40.359 402.22 73.6998M449.137 18.7711C525.046 39.8487 611.608 17.6143 615.772 15.54C619.937 13.4657 620.626 73.4565 669.16 104.395C717.695 135.334 712.842 173.864 699.899 204.559M326.182 97.933C354.427 83.8871 371.058 78.5208 402.22 73.6998M187.05 93.0864C202.213 100.094 224.259 88.2397 246.909 85.0086C269.558 81.7775 272.794 89.8553 272.794 89.8553M554.295 487.281L597.976 505.052M554.295 487.281C597.101 404.312 628.998 354.914 590.818 301.492M599.594 236.87C595.322 212.771 593.264 201.335 580.18 183.557M599.594 236.87C617.483 243.068 623.896 249.775 627.906 268.374C626.276 297.698 661.611 295.431 659.453 299.877C637.929 337.074 651.253 360.242 656.218 391.963C662.099 418.1 653.798 443.22 652.982 456.585M599.594 236.87C600.919 261.622 597.853 282.749 590.818 301.492M580.18 183.557C636.559 167.136 660.243 173.138 699.899 204.559M580.18 183.557L534.881 146.4M652.982 456.585C632.082 485.606 619.94 494.518 597.976 505.052M652.982 456.585C667.162 472.106 676.417 480.429 698.281 493.743M597.976 505.052C622.83 519.535 657.836 545.441 657.836 548.672C657.836 551.903 620.507 559.294 588.269 555.134C489.09 529.085 442.459 516.42 403.838 532.844C391.549 539.848 387.265 544.907 382.806 555.134C378.363 541.368 373.099 534.132 360.156 529.613C347.214 525.094 279.338 538.257 185.432 534.132M321.329 624.603C230.597 600.788 203.904 580.867 185.432 534.132M321.329 624.603C301.542 661.239 321.329 695.687 340.743 702.149M321.329 624.603C464.405 626.476 523.305 612.316 588.269 558.693M402.22 73.6998C466.153 72.0625 495.332 87.5933 534.881 146.4M699.899 204.559C699.899 204.559 719.313 227.177 751.669 283.721C784.026 340.266 818 353.19 818 353.19C808.03 370.196 793.013 387.554 769.465 432.352C745.805 490.787 728.525 501.481 698.281 493.743M457.226 118.935C417.643 95.9266 393.432 98.3295 347.214 125.397M589.887 81.7775C595.985 85.8476 606.065 94.7019 614.154 106.011C622.244 117.32 630.333 122.166 638.422 127.013M698.281 493.743C726.254 586.711 645.715 645 581.798 671.454C517.881 697.907 508.528 725.208 508.996 749C482.191 731.578 445.901 727.998 423.251 724.767C400.602 721.536 360.156 708.611 340.743 702.149M699.899 400.041C684.774 419.045 686.866 430.077 701.517 450.123M332.653 598.754C295.929 597.731 276.132 590.828 242.055 568.058M614.154 600.369C589.494 620.397 559.149 635.911 541.352 642.374C523.556 648.836 508.996 652.067 499.289 666.607M725.784 291.799C716.373 264.303 707.664 249.982 680.485 228.793" stroke="#8A2BE2" stroke-width="2" stroke-linecap="round" stroke-linejoin="round"/>
</svg>
